<!-- <svg width="512" height="512" viewBox="0 0 512 512" fill="none" xmlns="http://www.w3.org/2000/svg">
<path d="M261.126 140.65L164.624 307.732L256.001 466L377.028 256.5L498.001 47H315.192L261.126 140.65Z" fill="#1697F6"/>
<path d="M135.027 256.5L141.365 267.518L231.64 111.178L268.731 47H256H14L135.027 256.5Z" fill="#AEDDFF"/>
<path d="M315.191 47C360.935 197.446 256 466 256 466L164.624 307.732L315.191 47Z" fill="#1867C0"/>
<path d="M268.731 47C76.0026 47 141.366 267.518 141.366 267.518L268.731 47Z" fill="#7BC6FF"/>
</svg> -->

<svg width="22" height="32" viewBox="0 0 512 512" fill="none" xmlns="http://www.w3.org/2000/svg">
  <path fill="currentColor" d="M149.48,449.72c-4.43-.67-8.5-1.21-12.55-1.9-19.8-3.38-39.14-8.43-57.75-16.06-17.77-7.28-34.38-16.52-48.77-29.39-10.7-9.58-19.57-20.57-24.91-34.04-9.17-23.13-6.66-45.28,6.29-66.31,7.87-12.78,18.6-22.84,30.76-31.45,16.27-11.51,34.2-19.63,53.06-25.78,19.94-6.5,40.39-10.56,61.23-12.74,4.48-.47,8.96-.87,13.42-1.31,.6-2.09,.74-114.69,.1-118.08-3.27,.33-6.58,.59-9.88,1-16.29,2.03-32.35,5.2-47.98,10.3-13.08,4.27-25.65,9.64-37.2,17.2-5.64,3.69-10.88,7.85-15.33,12.96-2.4,2.76-4.46,5.74-5.94,9.12-2.3,5.25-2.23,10.47,.33,15.55,1.29,2.55,2.9,4.96,4.57,7.29,13.1,18.32,8.42,43.59-10.4,55.85-.88,.57-1.8,1.07-3.02,1.79-4.21-3.26-8.56-6.4-12.65-9.85-10.07-8.47-18.68-18.22-24.57-30.09-12.26-24.71-10.8-48.88,3.46-72.31,7.28-11.96,17.2-21.53,28.41-29.78,16.13-11.88,34.04-20.26,52.95-26.64,20.06-6.76,40.66-11.02,61.68-13.35,4.09-.45,8.2-.81,12.3-1.21,1.13-.11,2.26-.25,3.66-.41,0-1.22,0-2.25,0-3.29,0-10.26-.07-20.52,.02-30.78,.1-12.6,8.55-22.85,20.83-25.47,15.26-3.25,30.17,7.99,31.22,23.56,.1,1.43,.09,2.87,.09,4.31,0,65.39,0,130.79,0,196.18v4.13c2.81-.24,5.34-.4,7.86-.68,20.46-2.29,40.48-6.48,59.76-13.85,12.23-4.67,23.89-10.42,34.26-18.54,4.71-3.68,8.98-7.79,12.29-12.81,2.08-3.16,3.67-6.52,4.1-10.33,.48-4.26-.75-8.16-2.8-11.83-2.8-5.01-6.68-9.11-11.01-12.8-9.22-7.85-19.75-13.49-30.82-18.21-2.73-1.16-5.53-2.17-8.27-3.31-22.97-9.56-37.46-26.33-42.82-50.73-.76-3.44-.91-7.02-1.29-10.54-.09-.82,.07-1.68,.12-2.76,3.15,.44,6.09,.79,9,1.26,21.26,3.42,42.02,8.69,61.96,16.94,17.47,7.23,33.8,16.38,47.98,29.05,10.41,9.31,19.11,19.96,24.49,32.97,9.72,23.52,7.34,46.11-5.97,67.61-7.84,12.67-18.51,22.67-30.59,31.23-16.26,11.52-34.19,19.65-53.06,25.79-21.97,7.15-44.53,11.31-67.52,13.4-14.15,1.28-28.33,1.3-42.51,1.69-30.48,.84-60.28,5.53-88.73,17.03-10.88,4.4-21.31,9.68-30.48,17.1-3.56,2.88-6.76,6.22-9.89,9.57-1.61,1.73-2.85,3.86-4,5.94-3.56,6.4-3.36,12.81,.19,19.18,3.19,5.71,7.69,10.25,12.71,14.33,7.64,6.2,16.14,11.02,25.08,15.04,4.1,1.85,8.32,3.43,12.48,5.16,22.85,9.54,37.31,26.2,42.74,50.48,.96,4.29,1.39,8.67,1.3,13.61Z"/>
  <path fill="currentColor" d="M170.76,304.63c5.52-.83,10.66-.33,15.7,.88,19.24,4.59,33.48,20.33,36.11,39.88,.31,2.27,.34,4.59,.35,6.89,.03,14.57,.02,29.15,.02,43.72,0,1.03,0,2.05,0,3.39,3.78-.38,7.2-.65,10.59-1.08,18.59-2.34,36.85-6.16,54.48-12.63,13.56-4.98,26.5-11.16,37.83-20.29,4.81-3.87,9.09-8.22,12.28-13.58,4.02-6.77,4.28-13.59,.29-20.44-1.1-1.9-2.39-3.7-3.67-5.49-13.35-18.66-8.1-44.7,11.41-56.44,.57-.34,1.17-.63,2.09-1.12,4.24,3.29,8.67,6.49,12.82,10.01,10.04,8.5,18.62,18.28,24.47,30.17,11.8,23.98,10.69,47.57-2.73,70.57-7.37,12.62-17.63,22.64-29.31,31.25-16.13,11.88-34.04,20.26-52.95,26.63-20.06,6.76-40.66,11.02-61.68,13.34-4,.44-8.01,.79-12.01,1.19-1.22,.12-2.45,.27-3.92,.44,0,1.23,0,2.26,0,3.3,0,10.26,.07,20.52-.02,30.78-.11,12.61-8.55,22.83-20.85,25.44-15.28,3.25-30.14-7.98-31.2-23.57-.08-1.15-.09-2.3-.09-3.45,0-58.68,0-117.36,0-176.04v-3.75Z"/>
</svg>
